<?xml version="1.0" standalone="no"?>
<!DOCTYPE svg PUBLIC "-//W3C//DTD SVG 20010904//EN"
 "http://www.w3.org/TR/2001/REC-SVG-20010904/DTD/svg10.dtd">
<svg version="1.0" xmlns="http://www.w3.org/2000/svg"
 width="1006.000000pt" height="592.000000pt" viewBox="0 0 1006.000000 592.000000"
 preserveAspectRatio="xMidYMid meet">
<metadata>
Created by potrace 1.10, written by Peter Selinger 2001-2011
</metadata>
<g transform="translate(0.000000,592.000000) scale(0.100000,-0.100000)"
fill="#000000" stroke="none">
<path d="M4490 4600 l0 -1320 -2247 -3 -2248 -2 2253 -3 2252 -2 0 1325 c0
729 -2 1325 -5 1325 -3 0 -5 -594 -5 -1320z"/>
<path d="M1464 5308 c-35 -43 -108 -193 -125 -259 -12 -44 -22 -58 -77 -104
-81 -67 -148 -103 -206 -111 l-46 -7 0 76 c0 76 0 77 46 134 26 32 90 102 143
156 52 53 91 97 85 97 -6 0 -71 -61 -144 -136 -73 -75 -130 -128 -127 -118 3
11 11 46 17 79 5 34 19 93 30 133 23 82 23 82 11 82 -11 0 -71 -244 -71 -290
-1 -19 -14 -62 -30 -95 -36 -73 -37 -88 -5 -113 14 -11 28 -35 31 -53 8 -43
31 -89 44 -89 13 0 13 1 -4 36 -7 16 -16 41 -20 55 -5 25 -3 27 39 33 60 9
149 56 212 111 l52 45 -10 -32 c-14 -45 -14 -207 0 -221 13 -13 17 -1 24 69 3
28 15 80 27 115 25 75 46 103 36 48 -7 -41 0 -69 19 -69 7 0 33 19 59 42 38
33 50 38 57 27 10 -15 24 -3 76 67 l22 29 -18 -50 c-29 -79 -34 -127 -16 -150
15 -19 17 -18 73 41 l59 61 -1 -60 c-1 -89 17 -81 43 18 25 93 38 110 33 42
-4 -47 13 -72 41 -61 21 8 87 88 87 106 0 7 -21 -11 -46 -40 -25 -28 -50 -52
-56 -52 -7 0 -9 28 -6 80 7 116 -9 107 -56 -31 -20 -58 -26 -67 -26 -42 0 17
9 60 20 95 23 74 22 68 12 68 -5 0 -14 -17 -20 -38 -12 -38 -115 -172 -139
-180 -29 -9 -2 125 40 200 27 49 13 62 -22 21 -15 -18 -34 -33 -42 -33 -8 0
-47 -32 -87 -70 -40 -39 -78 -70 -84 -70 -7 0 -8 20 -4 61 6 48 4 60 -6 57
-21 -7 -57 -81 -77 -159 -21 -82 -28 -56 -11 44 7 44 32 99 105 230 52 95 95
181 95 190 0 27 -26 20 -56 -15z m-34 -133 c-40 -75 -74 -134 -77 -132 -2 3
10 40 28 82 31 76 107 200 116 191 3 -2 -28 -66 -67 -141z m160 -152 c-1 -5
-12 -21 -25 -38 -30 -36 -34 -19 -4 19 21 26 29 32 29 19z m-600 -140 c0 -54
-1 -56 -17 -41 -14 15 -15 23 -4 58 6 22 14 40 16 40 3 0 5 -26 5 -57z"/>
<path d="M2729 5298 c-37 -51 -90 -161 -115 -240 -15 -50 -26 -64 -86 -113
-37 -31 -68 -52 -68 -46 0 5 -7 17 -16 25 -23 23 -97 20 -190 -8 -43 -13 -83
-20 -88 -16 -25 24 50 193 129 292 47 59 126 118 157 118 10 0 18 5 18 10 0
15 -19 12 -66 -11 -68 -32 -156 -135 -210 -243 -73 -147 -64 -204 28 -178 136
39 165 45 190 39 51 -13 45 -40 -27 -114 -100 -103 -163 -243 -108 -243 25 0
69 28 103 66 40 46 68 107 83 183 11 52 18 63 66 105 30 25 56 45 57 43 2 -1
-1 -20 -6 -42 -11 -45 -13 -175 -4 -199 11 -27 24 -17 24 17 0 44 35 179 55
214 l16 28 -5 -41 c-4 -30 -2 -45 9 -54 17 -14 24 -10 83 44 28 26 34 28 43
16 8 -13 14 -10 37 16 15 17 37 44 49 60 21 28 21 27 -2 -31 -25 -61 -33 -149
-15 -160 17 -10 47 13 96 75 39 49 129 119 140 107 1 -1 -12 -25 -30 -52 -82
-122 -88 -268 -11 -233 13 6 26 17 29 24 7 19 -8 18 -24 -1 -7 -8 -19 -15 -27
-15 -12 0 -15 11 -11 58 4 64 32 128 84 196 18 24 30 48 24 51 -5 3 -27 -3
-49 -15 -22 -11 -43 -20 -46 -20 -3 0 4 18 15 39 16 32 17 41 6 50 -10 9 -22
2 -50 -29 -48 -53 -65 -89 -47 -99 10 -6 10 -14 3 -27 -17 -30 -91 -98 -99
-91 -11 12 13 111 43 177 31 69 25 90 -12 42 -14 -18 -34 -32 -44 -32 -10 0
-27 -10 -37 -22 -27 -34 -124 -118 -135 -118 -6 0 -7 23 -3 61 6 49 5 61 -6
57 -19 -6 -57 -88 -76 -163 -9 -36 -18 -63 -20 -61 -11 11 20 166 41 206 13
25 56 103 95 175 39 71 71 138 71 147 0 31 -29 19 -61 -24z m48 15 c-111 -204
-150 -273 -153 -273 -5 0 31 91 57 143 28 56 82 137 92 137 5 0 6 -3 4 -7z
m258 -277 c-28 -48 -42 -62 -52 -52 -6 6 20 50 50 83 31 35 32 20 2 -31z
m-191 -41 c-27 -36 -34 -41 -34 -26 0 13 40 61 51 61 6 0 -2 -16 -17 -35z
m-413 -227 c-26 -76 -61 -126 -113 -161 -55 -36 -60 -21 -22 58 31 64 147 197
152 174 1 -8 -6 -40 -17 -71z"/>
<path d="M3310 5066 c-11 -26 -20 -52 -20 -57 0 -5 -29 -38 -64 -74 -93 -95
-122 -82 -65 28 21 42 22 47 11 47 -16 0 -54 -96 -50 -126 5 -46 32 -41 91 15
l54 51 -1 -67 c-1 -54 2 -68 15 -71 12 -2 24 20 49 90 17 51 39 104 47 118
l14 25 -7 -30 c-16 -71 -22 -110 -18 -117 11 -17 24 -6 44 32 24 47 31 50 28
12 -2 -29 7 -52 22 -52 18 0 110 81 110 97 0 12 -15 3 -48 -30 -26 -26 -53
-47 -60 -47 -8 0 -12 16 -12 45 0 25 -4 45 -10 45 -5 0 -19 -18 -30 -41 -12
-23 -24 -39 -27 -36 -2 3 5 40 16 81 12 42 21 81 21 86 0 47 -73 -81 -110
-192 -12 -38 -24 -68 -27 -68 -15 0 8 143 32 203 31 77 26 105 -5 33z"/>
<path d="M3199 5073 c-7 -16 -15 -31 -17 -35 -2 -5 0 -8 6 -8 7 0 16 14 40 63
2 4 0 7 -6 7 -5 0 -15 -12 -23 -27z"/>
<path d="M1345 4180 c0 -27 4 -40 14 -40 8 0 11 6 7 16 -4 12 -2 15 9 10 9 -3
15 0 15 9 0 9 -6 12 -15 9 -10 -4 -15 0 -15 11 0 12 6 16 20 12 11 -3 20 -1
20 4 0 5 -12 9 -27 9 -26 0 -28 -3 -28 -40z"/>
<path d="M1455 4180 c-1 -23 4 -40 10 -40 7 0 9 14 7 35 -3 22 0 35 8 35 6 0
9 -8 5 -19 -8 -25 4 -51 23 -51 13 0 13 2 -1 18 -12 13 -14 21 -6 29 15 15 2
33 -24 33 -19 0 -22 -6 -22 -40z"/>
<path d="M1570 4201 c-25 -47 36 -83 64 -38 8 12 8 22 0 35 -16 25 -51 27 -64
3z m54 -6 c8 -21 -3 -45 -20 -45 -18 0 -28 24 -20 45 3 8 12 15 20 15 7 0 16
-7 20 -15z"/>
<path d="M1695 4180 c0 -23 5 -40 11 -40 7 0 9 11 7 28 l-5 27 25 -30 24 -29
5 42 c2 27 -1 42 -8 42 -7 0 -9 -11 -6 -27 l5 -28 -22 28 c-30 36 -36 34 -36
-13z"/>
<path d="M1810 4210 c0 -5 7 -7 16 -3 14 5 16 0 12 -30 -2 -23 0 -37 7 -37 7
0 9 14 7 37 -4 30 -2 35 12 30 9 -4 16 -2 16 3 0 6 -16 10 -35 10 -19 0 -35
-4 -35 -10z"/>
<path d="M1925 4180 c0 -37 2 -40 28 -40 15 0 27 4 27 10 0 5 -7 7 -15 4 -10
-4 -15 0 -15 11 0 9 5 13 10 10 6 -3 10 -1 10 4 0 6 -4 11 -10 11 -5 0 -10 5
-10 11 0 6 7 9 15 5 8 -3 15 -1 15 4 0 6 -12 10 -27 10 -26 0 -28 -3 -28 -40z"/>
<path d="M2035 4180 c0 -23 5 -40 11 -40 7 0 9 11 6 28 -5 24 -4 26 11 13 20
-16 22 -3 3 22 -21 27 -31 20 -31 -23z"/>
<path d="M2085 4186 c0 -50 12 -54 17 -7 2 24 -1 41 -7 41 -5 0 -10 -15 -10
-34z"/>
<path d="M2165 4180 c0 -33 3 -40 20 -40 33 0 47 15 43 46 -2 24 -8 30 -33 32
-29 3 -30 1 -30 -38z m50 0 c0 -16 -6 -26 -17 -28 -14 -3 -18 3 -18 28 0 25 4
31 18 28 11 -2 17 -12 17 -28z"/>
<path d="M2355 4180 c0 -33 3 -40 20 -40 33 0 47 15 43 46 -2 24 -8 30 -33 32
-29 3 -30 1 -30 -38z m50 0 c0 -16 -6 -26 -17 -28 -14 -3 -18 3 -18 28 0 25 4
31 18 28 11 -2 17 -12 17 -28z"/>
<path d="M2475 4180 c0 -37 2 -40 28 -40 15 0 27 4 27 9 0 5 -9 7 -20 4 -14
-4 -20 0 -20 12 0 11 5 15 15 11 8 -3 15 -1 15 4 0 6 -7 10 -15 10 -8 0 -15 5
-15 11 0 6 9 9 20 6 11 -3 20 -1 20 4 0 5 -12 9 -27 9 -26 0 -28 -3 -28 -40z"/>
<path d="M2595 4184 c8 -20 15 -39 15 -43 1 -8 39 61 40 72 0 4 -4 7 -10 7 -5
0 -10 -9 -10 -19 0 -25 -20 -38 -21 -14 -1 10 -1 21 0 26 0 4 -6 7 -14 7 -14
0 -14 -4 0 -36z"/>
<path d="M2777 4180 c-8 -22 -11 -40 -6 -40 4 0 12 15 17 33 l9 32 7 -32 c4
-19 14 -33 22 -33 12 0 10 8 -6 40 -11 22 -22 40 -24 40 -1 0 -10 -18 -19 -40z"/>
<path d="M2892 4180 c-1 -25 2 -40 9 -40 7 0 9 10 7 25 -3 14 -2 25 2 25 4 0
13 -11 20 -25 19 -36 30 -31 30 15 0 22 -4 40 -9 40 -4 0 -6 -12 -4 -27 l4
-28 -23 28 c-13 15 -26 27 -28 27 -3 0 -6 -18 -8 -40z"/>
<path d="M3015 4180 c0 -39 1 -41 29 -38 16 2 34 11 40 21 16 24 -4 51 -40 55
-28 3 -29 1 -29 -38z m50 1 c0 -36 -22 -37 -27 -1 -4 24 -1 30 11 28 9 -2 16
-13 16 -27z"/>
<path d="M2235 4024 c0 -46 9 -53 46 -34 21 12 26 55 7 66 -6 4 -21 8 -32 9
-18 2 -21 -3 -21 -41z m55 3 c0 -14 -20 -37 -32 -37 -4 0 -8 16 -8 35 0 33 2
35 20 25 11 -6 20 -16 20 -23z"/>
<path d="M2145 4040 c-11 -5 -15 -9 -8 -9 7 -1 10 -8 7 -16 -4 -8 -1 -15 5
-15 6 0 11 -4 11 -10 0 -5 -7 -10 -15 -10 -8 0 -15 -4 -15 -10 0 -14 13 -12
35 4 16 11 17 17 7 29 -7 8 -10 22 -6 31 7 18 7 18 -21 6z"/>
<path d="M1825 3870 c0 -43 15 -51 56 -30 38 21 17 70 -30 70 -24 0 -26 -4
-26 -40z m50 1 c0 -36 -22 -37 -27 -1 -4 24 -1 30 11 28 9 -2 16 -13 16 -27z"/>
<path d="M1950 3870 c0 -36 3 -40 24 -40 14 0 28 5 32 11 4 8 0 9 -15 4 -15
-5 -21 -2 -21 10 0 9 5 13 10 10 6 -3 10 -1 10 4 0 6 -4 11 -10 11 -5 0 -10 5
-10 11 0 6 7 9 15 5 8 -3 15 -1 15 4 0 6 -11 10 -25 10 -22 0 -25 -4 -25 -40z"/>
<path d="M2060 3898 c0 -6 7 -20 17 -30 9 -10 13 -21 9 -25 -4 -4 -11 -1 -16
7 -8 13 -10 12 -10 -2 0 -11 8 -18 20 -18 31 0 35 27 9 51 l-24 20 24 -7 c16
-4 21 -3 17 5 -9 15 -46 14 -46 -1z"/>
<path d="M2165 3870 c0 -22 5 -40 10 -40 6 0 10 18 10 40 0 22 -4 40 -10 40
-5 0 -10 -18 -10 -40z"/>
<path d="M2252 3898 c-27 -27 -2 -73 35 -66 19 3 32 38 14 38 -6 0 -10 -6 -8
-12 1 -7 -5 -13 -13 -13 -9 0 -16 11 -18 29 -3 26 -1 28 22 24 14 -3 26 -1 26
3 0 13 -44 11 -58 -3z"/>
<path d="M2372 3870 c-2 -22 2 -40 7 -40 6 0 8 14 5 33 l-6 32 21 -25 c11 -14
21 -28 21 -32 0 -5 5 -8 10 -8 6 0 10 18 10 40 0 22 -5 40 -10 40 -6 0 -8 -12
-5 -27 l6 -28 -23 28 c-13 15 -26 27 -29 27 -3 0 -6 -18 -7 -40z"/>
<path d="M2495 3870 c0 -37 2 -40 28 -40 15 0 27 4 27 9 0 5 -9 7 -20 4 -14
-4 -20 0 -20 12 0 11 5 15 15 11 8 -3 15 -1 15 4 0 6 -7 10 -15 10 -8 0 -15 5
-15 11 0 6 9 9 20 6 11 -3 20 -1 20 4 0 5 -12 9 -27 9 -26 0 -28 -3 -28 -40z"/>
<path d="M2605 3870 c0 -24 5 -40 12 -40 6 0 9 10 7 23 l-5 22 17 -22 c9 -13
21 -23 26 -23 6 0 6 6 -1 14 -7 8 -9 25 -5 40 6 23 3 26 -22 26 -27 0 -29 -3
-29 -40z m45 20 c0 -5 -7 -10 -15 -10 -8 0 -15 5 -15 10 0 6 7 10 15 10 8 0
15 -4 15 -10z"/>
</g>
</svg>
